<svg color="#ec5941" width="128" height="128" viewBox="0 0 14 14" xmlns="http://www.w3.org/2000/svg">
    <g fill-rule="nonzero">
        <ellipse fill="none" stroke="currentColor" stroke-width="1.06" cx="6.9999976" cy="6.9999981" rx="6.4659724" ry="6.4659729" />
        <path fill="currentColor" d="M7 5.969L5.599 4.568a.29.29 0 0 0-.413.004l-.614.614a.294.294 0 0 0-.004.413L5.968 7l-1.4 1.401a.29.29 0 0 0 .004.413l.614.614c.113.114.3.117.413.004L7 8.032l1.401 1.4a.29.29 0 0 0 .413-.004l.614-.614a.294.294 0 0 0 .004-.413L8.032 7l1.4-1.401a.29.29 0 0 0-.004-.413l-.614-.614a.294.294 0 0 0-.413-.004L7 5.968z"/>
    </g>
</svg>
